<svg width="24" height="24" viewBox="0 0 24 24" fill="none" xmlns="http://www.w3.org/2000/svg">
<path d="M20.7273 5.45455H16.9091C16.6086 5.45455 16.3637 5.20964 16.3637 4.90909V2.72727C16.3637 2.42618 16.1193 2.18182 15.8182 2.18182C15.5171 2.18182 15.2728 2.42618 15.2728 2.72727V4.90909C15.2728 5.81127 16.007 6.54545 16.9091 6.54545H20.1819V22.3636C20.1819 22.6642 19.937 22.9091 19.6364 22.9091H4.36369C4.06314 22.9091 3.81823 22.6642 3.81823 22.3636V1.63636C3.81823 1.33582 4.06314 1.09091 4.36369 1.09091H16.1586L20.3679 4.77382C20.5953 4.97291 20.9395 4.94945 21.1375 4.72255C21.3361 4.49564 21.3131 4.15145 21.0862 3.95291L16.7226 0.134727C16.6233 0.048 16.4957 0 16.3637 0H4.36369C3.46151 0 2.72733 0.734182 2.72733 1.63636V22.3636C2.72733 23.2658 3.46151 24 4.36369 24H19.6364C20.5386 24 21.2728 23.2658 21.2728 22.3636V6C21.2728 5.69891 21.0284 5.45455 20.7273 5.45455Z" fill="black"/>
<path d="M17.4545 17.4545C17.4545 17.1534 17.2102 16.9091 16.9091 16.9091H6.54545C6.24436 16.9091 6 17.1534 6 17.4545C6 17.7556 6.24436 18 6.54545 18H16.9091C17.2102 18 17.4545 17.7556 17.4545 17.4545Z" fill="black"/>
<path d="M6.54545 9.27261H12C12.3011 9.27261 12.5455 9.02825 12.5455 8.72716C12.5455 8.42607 12.3011 8.1817 12 8.1817H6.54545C6.24436 8.1817 6 8.42607 6 8.72716C6 9.02825 6.24436 9.27261 6.54545 9.27261Z" fill="black"/>
<path d="M17.4547 10.3636H10.9093C10.6082 10.3636 10.3638 10.608 10.3638 10.9091C10.3638 11.2102 10.6082 11.4546 10.9093 11.4546H17.4547C17.7558 11.4546 18.0002 11.2102 18.0002 10.9091C18.0002 10.608 17.7558 10.3636 17.4547 10.3636Z" fill="black"/>
<path d="M17.4547 8.1817H14.1819C13.8808 8.1817 13.6365 8.42607 13.6365 8.72716C13.6365 9.02825 13.8808 9.27261 14.1819 9.27261H17.4547C17.7557 9.27261 18.0001 9.02825 18.0001 8.72716C18.0001 8.42607 17.7557 8.1817 17.4547 8.1817Z" fill="black"/>
<path d="M6.54545 13.6365H11.4545C11.7556 13.6365 12 13.3921 12 13.091C12 12.79 11.7556 12.5456 11.4545 12.5456H6.54545C6.24436 12.5456 6 12.79 6 13.091C6 13.3921 6.24436 13.6365 6.54545 13.6365Z" fill="black"/>
<path d="M6.54545 15.8182H8.72727C9.02836 15.8182 9.27273 15.5738 9.27273 15.2727C9.27273 14.9717 9.02836 14.7273 8.72727 14.7273H6.54545C6.24436 14.7273 6 14.9717 6 15.2727C6 15.5738 6.24436 15.8182 6.54545 15.8182Z" fill="black"/>
<path d="M6.54545 11.4546H8.72727C9.02836 11.4546 9.27273 11.2102 9.27273 10.9091C9.27273 10.608 9.02836 10.3636 8.72727 10.3636H6.54545C6.24436 10.3636 6 10.608 6 10.9091C6 11.2102 6.24436 11.4546 6.54545 11.4546Z" fill="black"/>
<path d="M17.9999 13.091C17.9999 12.79 17.7556 12.5456 17.4545 12.5456H13.6363C13.3352 12.5456 13.0909 12.79 13.0909 13.091C13.0909 13.3921 13.3352 13.6365 13.6363 13.6365H17.4545C17.7556 13.6365 17.9999 13.3921 17.9999 13.091Z" fill="black"/>
<path d="M10.3638 15.2727C10.3638 15.5738 10.6082 15.8182 10.9093 15.8182H15.2729C15.574 15.8182 15.8183 15.5738 15.8183 15.2727C15.8183 14.9717 15.574 14.7273 15.2729 14.7273H10.9093C10.6082 14.7273 10.3638 14.9717 10.3638 15.2727Z" fill="black"/>
<path d="M6.54545 19.0909C6.24436 19.0909 6 19.3353 6 19.6364C6 19.9375 6.24436 20.1819 6.54545 20.1819H12C12.3011 20.1819 12.5455 19.9375 12.5455 19.6364C12.5455 19.3353 12.3011 19.0909 12 19.0909H6.54545Z" fill="black"/>
</svg>
