<svg stroke="currentColor" fill="currentColor" width="20" height="20" viewBox="0 0 20 20" xmlns="http://www.w3.org/2000/svg">
<path d="M17.5 5.00002C17.279 5.00002 17.067 5.08782 16.9108 5.2441C16.7545 5.40038 16.6667 5.61234 16.6667 5.83335V14.1667C16.6667 14.8297 16.4033 15.4656 15.9345 15.9345C15.4656 16.4033 14.8297 16.6667 14.1667 16.6667H5.83335C5.61234 16.6667 5.40038 16.7545 5.2441 16.9108C5.08782 17.067 5.00002 17.279 5.00002 17.5C5.00002 17.721 5.08782 17.933 5.2441 18.0893C5.40038 18.2456 5.61234 18.3334 5.83335 18.3334H14.1667C15.2718 18.3334 16.3316 17.8944 17.113 17.113C17.8944 16.3316 18.3334 15.2718 18.3334 14.1667V5.83335C18.3334 5.61234 18.2456 5.40038 18.0893 5.2441C17.933 5.08782 17.721 5.00002 17.5 5.00002ZM15 12.5V4.16669C15 3.50365 14.7366 2.86776 14.2678 2.39892C13.7989 1.93008 13.1631 1.66669 12.5 1.66669H4.16669C3.50365 1.66669 2.86776 1.93008 2.39892 2.39892C1.93008 2.86776 1.66669 3.50365 1.66669 4.16669V12.5C1.66669 13.1631 1.93008 13.7989 2.39892 14.2678C2.86776 14.7366 3.50365 15 4.16669 15H12.5C13.1631 15 13.7989 14.7366 14.2678 14.2678C14.7366 13.7989 15 13.1631 15 12.5ZM8.33335 3.33335H10V7.38335L9.70002 7.13335C9.55028 7.00863 9.36157 6.94033 9.16669 6.94033C8.97181 6.94033 8.78309 7.00863 8.63335 7.13335L8.33335 7.38335V3.33335ZM3.33335 12.5V4.16669C3.33335 3.94567 3.42115 3.73371 3.57743 3.57743C3.73371 3.42115 3.94567 3.33335 4.16669 3.33335H6.66669V9.16669C6.66668 9.32599 6.71233 9.48196 6.79823 9.61612C6.88414 9.75027 7.00669 9.857 7.15139 9.92364C7.29608 9.99029 7.45684 10.0141 7.61463 9.99216C7.77242 9.97025 7.92063 9.90357 8.04169 9.80002L9.16669 8.85835L10.2917 9.80002C10.4426 9.92911 10.6347 10 10.8334 10C10.9539 9.99917 11.073 9.97364 11.1834 9.92502C11.328 9.85808 11.4504 9.75105 11.5361 9.61665C11.6218 9.48224 11.6671 9.32608 11.6667 9.16669V3.33335H12.5C12.721 3.33335 12.933 3.42115 13.0893 3.57743C13.2456 3.73371 13.3334 3.94567 13.3334 4.16669V12.5C13.3334 12.721 13.2456 12.933 13.0893 13.0893C12.933 13.2456 12.721 13.3334 12.5 13.3334H4.16669C3.94567 13.3334 3.73371 13.2456 3.57743 13.0893C3.42115 12.933 3.33335 12.721 3.33335 12.5Z"/>
</svg>

