<svg width="35" height="35" viewBox="0 0 35 35" fill="none" xmlns="http://www.w3.org/2000/svg">
<path fill-rule="evenodd" clip-rule="evenodd" d="M5.43313 0C2.4325 0 0 2.43249 0 5.43313V28.7956C0 31.7962 2.4325 34.2287 5.43313 34.2287H28.6145C31.6151 34.2287 34.0476 31.7962 34.0476 28.7956V5.43313C34.0476 2.4325 31.6151 0 28.6145 0H5.43313ZM9.32991 7.35017H17.8355C23.0848 7.35017 26.3691 10.0731 26.3691 14.4803C26.3691 18.8594 23.0848 21.5823 17.8355 21.5823H13.8774V27H9.32991V7.35017ZM13.8774 17.8769H17.5828C20.3619 17.8769 21.7654 16.6137 21.7654 14.4803C21.7654 12.3188 20.3619 11.0556 17.5828 11.0556H13.8774V17.8769Z" fill="#631DC0"/>
</svg>
